<mxfile host="app.diagrams.net" agent="Mozilla/5.0 (Windows NT 10.0; Win64; x64) AppleWebKit/537.36 (KHTML, like Gecko) Chrome/134.0.0.0 Safari/537.36" version="26.1.0">
  <diagram name="Page-1" id="kewibGgAe-xJ0T3a3Nk9">
    <mxGraphModel dx="1179" dy="887" grid="1" gridSize="10" guides="1" tooltips="1" connect="1" arrows="1" fold="1" page="1" pageScale="1" pageWidth="827" pageHeight="1169" math="0" shadow="0">
      <root>
        <mxCell id="0" />
        <mxCell id="1" parent="0" />
        <mxCell id="6Oed7tZ-z-3GZ885B6-T-1" value="" style="rounded=0;whiteSpace=wrap;html=1;dashed=1;strokeColor=#999999;fillColor=none;" vertex="1" parent="1">
          <mxGeometry x="70" y="100" width="120" height="580" as="geometry" />
        </mxCell>
        <mxCell id="6Oed7tZ-z-3GZ885B6-T-2" value="Sources" style="rounded=0;whiteSpace=wrap;html=1;fontSize=23;dashed=1;strokeColor=none;" vertex="1" parent="1">
          <mxGeometry x="80" y="60" width="100" height="50" as="geometry" />
        </mxCell>
        <mxCell id="6Oed7tZ-z-3GZ885B6-T-3" value="" style="rounded=0;whiteSpace=wrap;html=1;dashed=1;strokeColor=#999999;fillColor=none;" vertex="1" parent="1">
          <mxGeometry x="218" y="99" width="570" height="581" as="geometry" />
        </mxCell>
        <mxCell id="6Oed7tZ-z-3GZ885B6-T-4" value="Data&lt;div&gt;WareHouse&lt;/div&gt;" style="rounded=0;whiteSpace=wrap;html=1;fontSize=23;dashed=1;strokeColor=none;" vertex="1" parent="1">
          <mxGeometry x="410" y="45" width="140" height="80" as="geometry" />
        </mxCell>
        <mxCell id="6Oed7tZ-z-3GZ885B6-T-5" value="" style="rounded=0;whiteSpace=wrap;html=1;dashed=1;strokeColor=#999999;fillColor=none;" vertex="1" parent="1">
          <mxGeometry x="830" y="100" width="140" height="580" as="geometry" />
        </mxCell>
        <mxCell id="6Oed7tZ-z-3GZ885B6-T-6" value="Consumers" style="rounded=0;whiteSpace=wrap;html=1;fontSize=23;dashed=1;strokeColor=none;" vertex="1" parent="1">
          <mxGeometry x="840" y="55" width="100" height="60" as="geometry" />
        </mxCell>
        <mxCell id="6Oed7tZ-z-3GZ885B6-T-7" value="Bronze Layer" style="rounded=0;whiteSpace=wrap;html=1;fillColor=#ffe6cc;strokeColor=#d79b00;" vertex="1" parent="1">
          <mxGeometry x="238" y="129" width="142" height="30" as="geometry" />
        </mxCell>
        <mxCell id="6Oed7tZ-z-3GZ885B6-T-8" value="" style="rounded=0;whiteSpace=wrap;html=1;fillColor=none;strokeColor=#d79b00;" vertex="1" parent="1">
          <mxGeometry x="238" y="170" width="142" height="490" as="geometry" />
        </mxCell>
        <mxCell id="6Oed7tZ-z-3GZ885B6-T-9" value="" style="rounded=0;whiteSpace=wrap;html=1;fillColor=none;strokeColor=#666666;fontColor=#333333;" vertex="1" parent="1">
          <mxGeometry x="420" y="170" width="150" height="490" as="geometry" />
        </mxCell>
        <mxCell id="6Oed7tZ-z-3GZ885B6-T-10" value="Silver layer" style="rounded=0;whiteSpace=wrap;html=1;fillColor=#f5f5f5;strokeColor=#666666;fontColor=#333333;" vertex="1" parent="1">
          <mxGeometry x="420" y="129" width="150" height="30" as="geometry" />
        </mxCell>
        <mxCell id="6Oed7tZ-z-3GZ885B6-T-11" value="Gold Layer" style="rounded=0;whiteSpace=wrap;html=1;fillColor=#fff2cc;strokeColor=#d6b656;" vertex="1" parent="1">
          <mxGeometry x="600" y="125" width="160" height="30" as="geometry" />
        </mxCell>
        <mxCell id="6Oed7tZ-z-3GZ885B6-T-12" value="" style="rounded=0;whiteSpace=wrap;html=1;fillColor=none;strokeColor=#d6b656;" vertex="1" parent="1">
          <mxGeometry x="600" y="166" width="160" height="494" as="geometry" />
        </mxCell>
        <mxCell id="6Oed7tZ-z-3GZ885B6-T-13" value="CRM" style="image;aspect=fixed;html=1;points=[];align=center;fontSize=12;image=img/lib/azure2/general/Folder_Blank.svg;" vertex="1" parent="1">
          <mxGeometry x="95.5" y="129" width="69" height="56.00000000000001" as="geometry" />
        </mxCell>
        <mxCell id="6Oed7tZ-z-3GZ885B6-T-14" value="" style="verticalLabelPosition=bottom;html=1;verticalAlign=top;align=center;strokeColor=none;fillColor=#00BEF2;shape=mxgraph.azure.cloud_services_configuration_file;pointerEvents=1;" vertex="1" parent="1">
          <mxGeometry x="141.5" y="159" width="23" height="30" as="geometry" />
        </mxCell>
        <mxCell id="6Oed7tZ-z-3GZ885B6-T-15" value="ERP" style="image;aspect=fixed;html=1;points=[];align=center;fontSize=12;image=img/lib/azure2/general/Folder_Blank.svg;" vertex="1" parent="1">
          <mxGeometry x="95.5" y="330" width="69" height="56.00000000000001" as="geometry" />
        </mxCell>
        <mxCell id="6Oed7tZ-z-3GZ885B6-T-16" value="" style="verticalLabelPosition=bottom;html=1;verticalAlign=top;align=center;strokeColor=none;fillColor=#00BEF2;shape=mxgraph.azure.cloud_services_configuration_file;pointerEvents=1;" vertex="1" parent="1">
          <mxGeometry x="141.5" y="309" width="23" height="30" as="geometry" />
        </mxCell>
        <mxCell id="6Oed7tZ-z-3GZ885B6-T-17" value="" style="endArrow=none;html=1;rounded=0;" edge="1" parent="1">
          <mxGeometry width="50" height="50" relative="1" as="geometry">
            <mxPoint x="95.5" y="440" as="sourcePoint" />
            <mxPoint x="160" y="440" as="targetPoint" />
          </mxGeometry>
        </mxCell>
        <mxCell id="6Oed7tZ-z-3GZ885B6-T-18" value="Object Type: Csv files" style="text;html=1;align=center;verticalAlign=middle;whiteSpace=wrap;rounded=0;" vertex="1" parent="1">
          <mxGeometry x="80" y="500" width="100" height="30" as="geometry" />
        </mxCell>
        <mxCell id="6Oed7tZ-z-3GZ885B6-T-19" value="Raw Data" style="html=1;verticalLabelPosition=bottom;align=center;labelBackgroundColor=#ffffff;verticalAlign=top;strokeWidth=2;strokeColor=#d79b00;shadow=0;dashed=0;shape=mxgraph.ios7.icons.data;fillColor=#ffe6cc;" vertex="1" parent="1">
          <mxGeometry x="289" y="219.05" width="40" height="39.1" as="geometry" />
        </mxCell>
        <mxCell id="6Oed7tZ-z-3GZ885B6-T-20" value="Cleaned standard&lt;div&gt;data&lt;/div&gt;" style="html=1;verticalLabelPosition=bottom;align=center;labelBackgroundColor=#ffffff;verticalAlign=top;strokeWidth=2;strokeColor=#666666;shadow=0;dashed=0;shape=mxgraph.ios7.icons.data;fillColor=#f5f5f5;fontColor=#333333;" vertex="1" parent="1">
          <mxGeometry x="475" y="219.05" width="40" height="39.1" as="geometry" />
        </mxCell>
        <mxCell id="6Oed7tZ-z-3GZ885B6-T-21" value="Business ready&lt;div&gt;data&lt;/div&gt;" style="html=1;verticalLabelPosition=bottom;align=center;labelBackgroundColor=#ffffff;verticalAlign=top;strokeWidth=2;strokeColor=#d6b656;shadow=0;dashed=0;shape=mxgraph.ios7.icons.data;fillColor=#fff2cc;" vertex="1" parent="1">
          <mxGeometry x="660" y="219.05" width="40" height="39.1" as="geometry" />
        </mxCell>
        <mxCell id="6Oed7tZ-z-3GZ885B6-T-22" value="" style="shape=singleArrow;whiteSpace=wrap;html=1;fillColor=#dae8fc;strokeColor=#6c8ebf;" vertex="1" parent="1">
          <mxGeometry x="180" y="220" width="70" height="41" as="geometry" />
        </mxCell>
        <mxCell id="6Oed7tZ-z-3GZ885B6-T-23" value="" style="shape=singleArrow;whiteSpace=wrap;html=1;fillColor=#dae8fc;strokeColor=#6c8ebf;" vertex="1" parent="1">
          <mxGeometry x="360" y="219.04999999999998" width="90" height="41" as="geometry" />
        </mxCell>
        <mxCell id="6Oed7tZ-z-3GZ885B6-T-24" value="" style="shape=singleArrow;whiteSpace=wrap;html=1;fillColor=#dae8fc;strokeColor=#6c8ebf;" vertex="1" parent="1">
          <mxGeometry x="540" y="220" width="90" height="41" as="geometry" />
        </mxCell>
        <mxCell id="6Oed7tZ-z-3GZ885B6-T-25" value="" style="shape=singleArrow;whiteSpace=wrap;html=1;fillColor=#dae8fc;strokeColor=#6c8ebf;" vertex="1" parent="1">
          <mxGeometry x="730" y="220" width="90" height="41" as="geometry" />
        </mxCell>
        <mxCell id="6Oed7tZ-z-3GZ885B6-T-26" value="" style="endArrow=none;html=1;rounded=0;" edge="1" parent="1">
          <mxGeometry width="50" height="50" relative="1" as="geometry">
            <mxPoint x="276.75" y="300" as="sourcePoint" />
            <mxPoint x="341.25" y="300" as="targetPoint" />
          </mxGeometry>
        </mxCell>
        <mxCell id="6Oed7tZ-z-3GZ885B6-T-27" value="" style="endArrow=none;html=1;rounded=0;" edge="1" parent="1">
          <mxGeometry width="50" height="50" relative="1" as="geometry">
            <mxPoint x="462.75" y="300" as="sourcePoint" />
            <mxPoint x="527.25" y="300" as="targetPoint" />
          </mxGeometry>
        </mxCell>
        <mxCell id="6Oed7tZ-z-3GZ885B6-T-28" value="" style="endArrow=none;html=1;rounded=0;" edge="1" parent="1">
          <mxGeometry width="50" height="50" relative="1" as="geometry">
            <mxPoint x="647.75" y="300" as="sourcePoint" />
            <mxPoint x="712.25" y="300" as="targetPoint" />
          </mxGeometry>
        </mxCell>
        <mxCell id="6Oed7tZ-z-3GZ885B6-T-29" value="Object Type: Table" style="text;html=1;align=left;verticalAlign=middle;whiteSpace=wrap;rounded=0;" vertex="1" parent="1">
          <mxGeometry x="243" y="309" width="100" height="30" as="geometry" />
        </mxCell>
        <mxCell id="6Oed7tZ-z-3GZ885B6-T-30" value="Load:&lt;div&gt;&lt;ul&gt;&lt;li&gt;Batch Processing&lt;/li&gt;&lt;li&gt;Full Load (trunc &amp;amp; Instert)&lt;/li&gt;&lt;/ul&gt;&lt;/div&gt;" style="text;html=1;align=left;verticalAlign=middle;whiteSpace=wrap;rounded=0;" vertex="1" parent="1">
          <mxGeometry x="243" y="390" width="100" height="30" as="geometry" />
        </mxCell>
        <mxCell id="6Oed7tZ-z-3GZ885B6-T-31" value="No tranformations" style="text;html=1;align=left;verticalAlign=middle;whiteSpace=wrap;rounded=0;" vertex="1" parent="1">
          <mxGeometry x="243" y="450" width="100" height="30" as="geometry" />
        </mxCell>
        <mxCell id="6Oed7tZ-z-3GZ885B6-T-32" value="Object Type: Table" style="text;html=1;align=left;verticalAlign=middle;whiteSpace=wrap;rounded=0;" vertex="1" parent="1">
          <mxGeometry x="425" y="309" width="100" height="30" as="geometry" />
        </mxCell>
        <mxCell id="6Oed7tZ-z-3GZ885B6-T-33" value="Load:&lt;div&gt;&lt;ul&gt;&lt;li&gt;Batch Processing&lt;/li&gt;&lt;li&gt;Full Load (trunc &amp;amp; Instert)&lt;/li&gt;&lt;/ul&gt;&lt;/div&gt;" style="text;html=1;align=left;verticalAlign=middle;whiteSpace=wrap;rounded=0;" vertex="1" parent="1">
          <mxGeometry x="425" y="390" width="100" height="30" as="geometry" />
        </mxCell>
        <mxCell id="6Oed7tZ-z-3GZ885B6-T-34" value="Transformations&lt;div&gt;&lt;ul&gt;&lt;li&gt;Data Cleansing&lt;/li&gt;&lt;li&gt;Data Standardization&lt;/li&gt;&lt;li&gt;Data Normalization&lt;/li&gt;&lt;li&gt;Derived Columns&lt;/li&gt;&lt;li&gt;Data Enrichment&lt;/li&gt;&lt;/ul&gt;&lt;/div&gt;" style="text;html=1;align=left;verticalAlign=middle;whiteSpace=wrap;rounded=0;" vertex="1" parent="1">
          <mxGeometry x="425" y="530" width="125" height="30" as="geometry" />
        </mxCell>
        <mxCell id="6Oed7tZ-z-3GZ885B6-T-35" value="Data Model: None" style="text;html=1;align=left;verticalAlign=middle;whiteSpace=wrap;rounded=0;" vertex="1" parent="1">
          <mxGeometry x="243" y="500" width="100" height="30" as="geometry" />
        </mxCell>
        <mxCell id="6Oed7tZ-z-3GZ885B6-T-36" value="Data Model: None" style="text;html=1;align=left;verticalAlign=middle;whiteSpace=wrap;rounded=0;" vertex="1" parent="1">
          <mxGeometry x="430" y="620" width="100" height="30" as="geometry" />
        </mxCell>
        <mxCell id="6Oed7tZ-z-3GZ885B6-T-37" value="Object Type: Views" style="text;html=1;align=left;verticalAlign=middle;whiteSpace=wrap;rounded=0;" vertex="1" parent="1">
          <mxGeometry x="605" y="309" width="100" height="30" as="geometry" />
        </mxCell>
        <mxCell id="6Oed7tZ-z-3GZ885B6-T-38" value="No Load" style="text;html=1;align=left;verticalAlign=middle;whiteSpace=wrap;rounded=0;" vertex="1" parent="1">
          <mxGeometry x="605" y="343" width="100" height="30" as="geometry" />
        </mxCell>
        <mxCell id="6Oed7tZ-z-3GZ885B6-T-39" value="Transformations&lt;div&gt;&lt;ul&gt;&lt;li&gt;Data Integrations&lt;/li&gt;&lt;li&gt;Aggregations&lt;/li&gt;&lt;li&gt;Business Logics&lt;/li&gt;&lt;/ul&gt;&lt;/div&gt;" style="text;html=1;align=left;verticalAlign=middle;whiteSpace=wrap;rounded=0;" vertex="1" parent="1">
          <mxGeometry x="605" y="430" width="125" height="30" as="geometry" />
        </mxCell>
        <mxCell id="6Oed7tZ-z-3GZ885B6-T-40" value="Data Model:&amp;nbsp;&lt;div&gt;&lt;ul&gt;&lt;li&gt;Star Schema&lt;/li&gt;&lt;li&gt;Flat Table&lt;/li&gt;&lt;li&gt;Aggregated Table&lt;/li&gt;&lt;/ul&gt;&lt;/div&gt;" style="text;html=1;align=left;verticalAlign=middle;whiteSpace=wrap;rounded=0;" vertex="1" parent="1">
          <mxGeometry x="605" y="555" width="100" height="30" as="geometry" />
        </mxCell>
        <mxCell id="6Oed7tZ-z-3GZ885B6-T-41" value="" style="image;aspect=fixed;html=1;points=[];align=center;fontSize=12;image=img/lib/azure2/analytics/Power_BI_Embedded.svg;" vertex="1" parent="1">
          <mxGeometry x="850" y="140" width="51" height="68" as="geometry" />
        </mxCell>
        <mxCell id="6Oed7tZ-z-3GZ885B6-T-42" value="" style="sketch=0;outlineConnect=0;fontColor=#232F3E;gradientColor=none;fillColor=#8C4FFF;strokeColor=none;dashed=0;verticalLabelPosition=bottom;verticalAlign=top;align=center;html=1;fontSize=12;fontStyle=0;aspect=fixed;pointerEvents=1;shape=mxgraph.aws4.quicksight_paginated_reports;" vertex="1" parent="1">
          <mxGeometry x="910.26" y="159" width="39.74" height="50" as="geometry" />
        </mxCell>
        <mxCell id="6Oed7tZ-z-3GZ885B6-T-43" value="BI &amp;amp; Reporting" style="text;html=1;align=center;verticalAlign=middle;whiteSpace=wrap;rounded=0;" vertex="1" parent="1">
          <mxGeometry x="870" y="230.05" width="60" height="30" as="geometry" />
        </mxCell>
        <mxCell id="6Oed7tZ-z-3GZ885B6-T-44" value="Ad-Hoc&lt;div&gt;SQL Queries&lt;/div&gt;" style="shadow=0;dashed=0;html=1;strokeColor=none;fillColor=#EF8F21;labelPosition=center;verticalLabelPosition=bottom;verticalAlign=top;align=center;outlineConnect=0;shape=mxgraph.veeam.reporting;" vertex="1" parent="1">
          <mxGeometry x="877.6" y="309" width="44.8" height="44.8" as="geometry" />
        </mxCell>
        <mxCell id="6Oed7tZ-z-3GZ885B6-T-45" value="Machine Learning" style="sketch=0;points=[[0,0,0],[0.25,0,0],[0.5,0,0],[0.75,0,0],[1,0,0],[0,1,0],[0.25,1,0],[0.5,1,0],[0.75,1,0],[1,1,0],[0,0.25,0],[0,0.5,0],[0,0.75,0],[1,0.25,0],[1,0.5,0],[1,0.75,0]];outlineConnect=0;fontColor=#232F3E;fillColor=#01A88D;strokeColor=#ffffff;dashed=0;verticalLabelPosition=bottom;verticalAlign=top;align=center;html=1;fontSize=12;fontStyle=0;aspect=fixed;shape=mxgraph.aws4.resourceIcon;resIcon=mxgraph.aws4.deep_learning_amis;" vertex="1" parent="1">
          <mxGeometry x="861" y="440" width="78" height="78" as="geometry" />
        </mxCell>
        <mxCell id="6Oed7tZ-z-3GZ885B6-T-46" value="" style="image;aspect=fixed;html=1;points=[];align=center;fontSize=12;image=img/lib/azure2/databases/SQL_Server.svg;" vertex="1" parent="1">
          <mxGeometry x="230" y="70" width="49" height="49" as="geometry" />
        </mxCell>
      </root>
    </mxGraphModel>
  </diagram>
</mxfile>
